<svg xmlns="http://www.w3.org/2000/svg" width="64" height="54" viewBox="0 0 64 54">
  <defs>
    <style>
      .cls-1 {
        fill: #d8ec54;
        fill-rule: evenodd;
      }
    </style>
  </defs>
  <path id="LINE_GRAPH" data-name="LINE GRAPH" class="cls-1" d="M575.708,3604.47l-0.03.02h0l-25.969,17.98,0-.01a2.966,2.966,0,0,1-3.369.03v0.01l-0.011-.01h0l-13.421-8.95-13.9,8.18V3634h55a3,3,0,0,1,0,6H516a3,3,0,0,1-3-3v-48a3,3,0,0,1,6,0v25.76l12.479-7.35,0.006,0.01A3,3,0,0,1,533,3607a3.049,3.049,0,0,1,1.664.5h0l0.011,0.01h0l13.289,8.86,24.324-16.84,0,0.01A2.958,2.958,0,0,1,574,3599a2.995,2.995,0,0,1,1.706,5.46Z" transform="translate(-513 -3586)"/>
</svg>
