<svg xmlns="http://www.w3.org/2000/svg" width="71.844" height="62.69" viewBox="0 0 71.844 62.69">
  <defs>
    <style>
      .cls-1 {
        fill: #d8ec54;
        fill-rule: evenodd;
      }
    </style>
  </defs>
  <path id="HEART" class="cls-1" d="M977.1,3583.04a18.255,18.255,0,0,0-13.542,5.74h-0.006s0,0.01,0,.01l-2.169,2.72-2.169-2.56a0.061,0.061,0,0,0-.007-0.01h0c-3.817-3.8-8.144-5.9-13.542-5.9a20.136,20.136,0,0,0-14.3,34.39l26.827,26.97a4.512,4.512,0,0,0,6.378,0l26.825-26.97a20.147,20.147,0,0,0-14.295-34.39h0Z" transform="translate(-925.469 -3583.03)"/>
</svg>
